<?xml version="1.0" encoding="utf-8"?>
<!-- Generator: Adobe Illustrator 23.1.0, SVG Export Plug-In . SVG Version: 6.00 Build 0)  -->
<svg version="1.1" id="Capa_1" xmlns="http://www.w3.org/2000/svg" xmlns:xlink="http://www.w3.org/1999/xlink" x="0px" y="0px"
	 viewBox="0 0 939 433" style="enable-background:new 0 0 939 433;" xml:space="preserve">
<style type="text/css">
	.st0{fill:#FA9BBA;}
	.st1{fill:#B972CF;}
	.st2{fill:#F29100;}
	.st3{fill:none;stroke:#D3E8CF;stroke-width:6;stroke-linejoin:round;}
	.st4{fill:#D3E8CF;}
</style>
<g>
	<g>
		<path class="st0" d="M329.5,148c0,0,37.8-21.8,78.6-25.5c42-3.8,69.6,4.9,69.6,4.9s-5.3,18.3-37.7,33.2
			c-46.6,21.4-68.4,21.8-84.8,15.6C334.3,168.2,329.5,148,329.5,148z"/>
		<path class="st0" d="M328.3,144.8c0,0-7.5-19.7-1.5-37.2c7-20.5,32.6-47.3,52.4-60.1c23-14.9,39.8-13.3,39.8-13.3
			s-4.7,21.2-22.1,55.3c-9.9,19.3-26.3,37.8-26.3,37.8s-12.1,4-20.1,7.2C342.4,137.6,328.3,144.8,328.3,144.8z"/>
		<path class="st0" d="M440.8,83.9c0,0,1.2,8.3-0.1,16.7c-1,6.6-4.9,18.3-4.9,18.3s10.6,0.5,18.3,1.4c7.8,1,20.1,3.8,20.1,3.8
			s2.7-7.1,4.3-13.2c2-7.8,6.5-12.3-12.2-22.2c-11.7-6.2-24.4-5.4-24.4-5.4c0,0,8.1-12.2,6.8-21.3c-2.3-16.4-11-16.6-18.2-18.5
			c-4.7-1.2-10-1.8-10-1.8s-3,9.9-4.3,13.3c-1.3,3.4-5.1,12.7-5.1,12.7s9.1,1,16.8,5.3C436.8,78,440.8,83.9,440.8,83.9z"/>
	</g>
	<g>
		<path class="st1" d="M209.5,143.2c0,0-40.9-15.2-81.7-11.9c-42,3.3-67.8,16.5-67.8,16.5s8.3,17.1,42.8,26.4
			c49.5,13.3,71.1,10,86.2,1.1C208.2,163.9,209.5,143.2,209.5,143.2z"/>
		<path class="st1" d="M210.1,139.8c0,0,4-20.7-4.8-37c-10.3-19-40.1-41.1-61.8-50.5c-25.2-10.8-41.4-6.4-41.4-6.4
			s8.1,20.1,31.1,50.8c13,17.3,32.2,32.9,32.2,32.9s12.6,1.9,21.1,3.7S210.1,139.8,210.1,139.8z"/>
		<path class="st1" d="M89,98.7c0,0,0.2,8.3,2.9,16.4c2.1,6.3,7.9,17.2,7.9,17.2s-10.3,2.2-17.8,4.5c-7.6,2.3-19.2,7.1-19.2,7.1
			s-3.9-6.5-6.5-12.3c-3.3-7.3-8.5-11,8.3-23.9c10.5-8,23.1-9.4,23.1-9.4c0,0-10-10.7-10.3-19.8C77,62.1,85.6,60.4,92.3,57.4
			c4.4-2,9.5-3.5,9.5-3.5s4.7,9.2,6.5,12.3c1.8,3.1,7.2,11.7,7.2,11.7s-8.8,2.5-15.7,8C91.9,92.2,89,98.7,89,98.7z"/>
	</g>
	<g>
		<path class="st2" d="M868.3,256.9"/>
		<g>
			<path class="st1" d="M398,229.2c1.8,3.3-1.5,7.6-3.3,10.2c-2.7,4-5.8,7.7-9.2,11.3c-2.5,2.5-5.2,5.6-8.5,7.6
				c-3,1.8-7.3,1.3-3.7-2.4c1-0.6,5.2-11,7.3-10.8c-0.3,0.3-1.5,2.8-2.2,4.2c4-5.5,14.8-21.7,6.4-25.5c-3.4-1.5-8.5,0-11.9,1.2
				c-3.9,1.3-7.6,3.4-10.8,5.9c4.6-3.4,9.9-5.8,15.7-6.8c2.5-0.4,5.9-1,8,0.7c2.2,2.2,0.9,4.6,0.6,6.8c0-3.7,1.2-7.3-4.3-7.7
				c-4.6-0.1-9.4,1.5-13.4,3.4c-7,3.4-13.4,9.2-16.9,16.2c-7.9,15.6,3.9,32.2,9.9,46.2c-3-5.6-6.4-11.1-9.2-16.8
				c2.1,4.6,2.8,8.9,5.3,13.4c3.4,5.5,7,10.5,8.9,16.8c4,13.4-0.1,24.2-10.4,33.1l3-2.1c0.1,4.5-13.4,10.1-16.5,11.3
				c-8.9,3.6-20.6,4.3-29.5-0.1c-12.8-6.5-9.8-23-3.6-33.1c1.5-2.4,12.5-16.9,15.7-11.1c1.3,2.4-3.4,8.8-4.3,11.1
				c-1.2,2.5-1.9,5.2-2.5,7.9c-1,4.8-1.9,10.4,0.1,15c2.4,5.6,8.8,5.6,14,4.2c7.1-2.2,13.5-7.4,17.4-13.8c1.9-3.3,3.3-7,3.6-10.8
				c0-1.5-0.1-2.8-0.4-4.3c-0.3-0.7-1.2-2.1-0.9-3.1c0,0.6,0.6,1.6,0.9,2.4c-0.3-1-0.6-1.9-0.7-3.1c0,0.1-0.6-1-0.7-1
				c-0.4-1-0.9-2.2-1.2-3.3l-2.7-6.7c-3-7.7-6.5-15.3-9.8-23c-2.4-5.6-4-11.9-4.3-18c-0.1-1.3-0.9-10.4,1.5-10.4
				c-0.1,0-0.6,2.4-0.4,2.4c0.6-2.7,1.6-5.5,3.1-8.3l-1,1.5c0.7-5.2,7-10.7,10.5-14c5.2-4.8,11.7-8.3,18.6-10.1
				c7.1-1.8,13.5-0.6,20.2,2.2c2.7,1,5.2,2.2,7.3,4C396.1,223.7,396.8,226.4,398,229.2z M313.4,310c-7,9.5-10.5,22.3-2.8,31.9
				C304.7,334.6,307.3,318.7,313.4,310z M348.8,257.6c0-0.6,0.1-1.3,0-2.1V257.6z"/>
			<path class="st1" d="M434.8,297.4l-4.6,6.1l-8,10.4c-2.1,2.7-4.6,5.2-6.7,7.9c-2.2,3-4.2,6.1-6.7,8.9c-2.7,2.8-5.8,5.8-9.4,7.7
				c-2.5,1.3-4.9,1.5-7.6,0.7c-3.9-1-7.3-3.4-9.8-6.4c-0.7-0.9-1.5-1.6-1.6-2.8c-0.1-0.9-0.3-1.9-0.3-3c-0.1-1.8,0.4-3.1,0.7-4.9
				c0.3-1.9,1.2-3.7,1.5-5.6c0.3-2.1,0.9-4,1.2-5.9c0.1-1.8-0.1-3.7,0.3-5.5c0.3-1.2,1.2-2.4,1.6-3.7c-0.4,0.9-1.2,1.8-1.3,2.5
				c-0.4,1.2-0.7,2.4-1.2,3.4c-0.4,1.2-0.6,2.2-1,3.4c-0.6,1.3-1.2,2.5-1.3,4c-0.1,1.3,0,2.7-0.1,4c-0.3,1.3-0.6,2.4-0.6,3.7
				c0,0.4,0.3,1.3,0.3,1.6c0,0.6-0.3,1.3-0.3,2.1c0,1.3,0.3,2.7,0.4,4.2c-2.4-4.2-1.9-8.3-1.2-12.8s1.3-8.8,2.4-13.1
				c1.9-8.8,5.9-17.4,11.6-24.4c4.6-6.1,10.7-10.7,18.7-9.2c3,0.6,6.2,1.9,8.2,4.5c2.1,2.8,1.9,6.4,0.9,9.7
				c-1.9,5.8-6.8,10.4-11.4,14.3c-1.9,1.6-4,3.3-6.2,4.6c-1.5,0.9-3.1,1.5-4.8,2.1l-2.5,0.9c-1,0.3-1.2,0.1-1.6,1
				c-0.7,1.5-0.3,3-0.6,4.5c-0.3,1.9-0.7,3.7-1.2,5.6c-0.7,3.6-1.9,8.2-1,11.9c1.6,7.6,14.1-4.2,16.3-6.2c1.5-1.3,2.8-2.8,4.2-4.2
				c0.7-0.9,1.6-1.6,2.2-2.5c0,0,0.3-0.7,0.3-1c1.8-2.8,4.2-5.5,6.4-8.2c2.7-3.1,5-6.4,7.6-9.8c1.3-1.9,4.5-7.4,6.8-3.4v0.1
				c0.1,0.1,0.1,0.1,0.1,0C436,295.7,435.6,296.5,434.8,297.4z M396.7,300.9c4.8-2.5,9.1-5.9,12.5-9.9l2.5-3.3
				c0.4-0.7,1.2-1.2,1.5-2.1c0.1-0.7-0.1-1.3,0-2.2l0.6-3.1c0.1-1.5-0.4-5.3-2.7-4.9c-1,0.3-2.1,1.6-2.7,2.4l-2.7,3.6
				c-3.1,4.6-4.8,9.7-7,14.4c0,0,0,0.1-0.1,0.4C397.8,297.7,397.4,299.3,396.7,300.9z"/>
			<path class="st1" d="M481,297.4l-4.6,6.1l-8,10.4c-2.1,2.7-4.6,5.2-6.7,7.9c-2.2,3-4.2,6.1-6.7,8.9c-2.7,2.8-5.8,5.8-9.4,7.7
				c-2.5,1.3-4.9,1.5-7.6,0.7c-3.9-1-7.3-3.4-9.8-6.4c-0.7-0.9-1.5-1.6-1.6-2.8c-0.1-0.9-0.3-1.9-0.3-3c-0.1-1.8,0.4-3.1,0.7-4.9
				c0.3-1.9,1.2-3.7,1.5-5.6c0.3-2.1,0.9-4,1.2-5.9c0.1-1.8-0.1-3.7,0.3-5.5c0.3-1.2,1.2-2.4,1.6-3.7c-0.4,0.9-1.2,1.8-1.3,2.5
				c-0.4,1.2-0.7,2.4-1.2,3.4c-0.4,1.2-0.6,2.2-1,3.4c-0.6,1.3-1.2,2.5-1.3,4c-0.1,1.3,0,2.7-0.1,4c-0.3,1.3-0.6,2.4-0.6,3.7
				c0,0.4,0.3,1.3,0.3,1.6c0,0.6-0.3,1.3-0.3,2.1c0,1.3,0.3,2.7,0.4,4.2c-2.4-4.2-1.9-8.3-1.2-12.8c0.7-4.5,1.3-8.8,2.4-13.1
				c1.9-8.8,5.9-17.4,11.6-24.4c4.6-6.1,10.7-10.7,18.7-9.2c3,0.6,6.2,1.9,8.2,4.5c2.1,2.8,1.9,6.4,0.9,9.7
				c-1.9,5.8-6.8,10.4-11.4,14.3c-1.9,1.6-4,3.3-6.2,4.6c-1.5,0.9-3.1,1.5-4.8,2.1l-2.5,0.9c-1,0.3-1.2,0.1-1.6,1
				c-0.7,1.5-0.3,3-0.6,4.5c-0.3,1.9-0.7,3.7-1.2,5.6c-0.7,3.6-1.9,8.2-1,11.9c1.6,7.6,14.1-4.2,16.3-6.2c1.5-1.3,2.8-2.8,4.2-4.2
				c0.7-0.9,1.6-1.6,2.2-2.5c0,0,0.3-0.7,0.3-1c1.8-2.8,4.2-5.5,6.4-8.2c2.7-3.1,5-6.4,7.6-9.8c1.3-1.9,4.5-7.4,6.8-3.4v0.1
				c0.1,0.1,0.1,0.1,0.1,0C482.2,295.7,481.7,296.5,481,297.4z M442.8,300.9c4.8-2.5,9.1-5.9,12.5-9.9l2.5-3.3
				c0.4-0.7,1.2-1.2,1.5-2.1c0.1-0.7-0.1-1.3,0-2.2l0.6-3.1c0.1-1.5-0.4-5.3-2.7-4.9c-1,0.3-2.1,1.6-2.7,2.4l-2.7,3.6
				c-3.1,4.6-4.8,9.7-7,14.4c0,0,0,0.1-0.1,0.4C444,297.7,443.6,299.3,442.8,300.9z"/>
			<path class="st1" d="M517.4,313.5c-5.5,8-12.8,15.7-20.2,22c-4.3,3.6-9.9,7-15.9,6.2c-1.8-0.3-3.6-0.9-4.8-2.2
				c-0.9-0.9-4.9-6.7-4.2-7.6c0,0,0.6,1.5,0.7,1.6l-0.7-2.5c0,0.9-1.2-2.2-1.2-2.8c-0.3-1.9-0.3-4-0.3-5.9c0.1-3.7,0.7-7.3,0.9-10.8
				c0.1-3.3,0.9-6.4,1.9-9.5c0.1-0.7,2.8-8.9,3.7-8.8c0.1,0-0.3,1.3-0.1,1.3c0.6-1.5,1-3.1,1.8-4.8l-0.6,0.7c-0.1-0.1,5.2-11,5.8-12
				c2.4-3.9,5.2-7.3,8.9-9.9c2.5-1.9,5.5-3.3,8.8-2.8c4,0.6,5.3,2.5,6.8,5.6c1.3,3,2.4,5.2,2.1,9.1c-0.1,2.2-0.4,5.2-1.5,7.4
				c-1,2.1-5.6,4.9-8,3.3c-1.9-1.3-0.4-2.2,0.3-3.4l-0.7,0.6c0,0,2.1-7.6,2.4-7.6c0.1,0-0.4,3.3-0.4,3.4c0.6-1.9,2.5-15.1-2.5-11.1
				c-1.9,1.5-3.1,4.6-4.2,6.5c-1.8,3.7-3.3,7.4-4.6,11.1c1.8-4.8,3.9-9.5,6.5-13.8c0.9-1.6,1.9-3.4,3.6-4.3c0.1-0.1,1.3,0.3,1,0.4
				c-0.1,0.1-0.7-0.4-1-0.1c-3.4,3.3-5.3,7.6-7.3,11.9c-4,9.4-7.3,19.2-8.9,29.1c-0.7,4.8-1.5,10.2-0.4,14.8c0.3,1,0.6,2.5,1.6,3.1
				c2.5,1.8,6.5-1.5,8.6-3c3.1-2.4,6.5-4.8,9.1-7.4c-0.4,0.3-0.9,0.6-1.3,0.7c-0.3,0,2.5-3.6,2.8-3.9c1.5-1.5,2.8-3.1,4.2-4.8
				c2.4-3,4.9-5.9,7.3-9.1c1.2-1.5,8.9-13.8,11.9-10.8c2.2,2.5-3.1,8.2-4.5,10.1C522.1,307,519.6,310.1,517.4,313.5z M475.5,309.4
				c-0.6,1.8-0.6,3.7-0.4,5.5c0-1.6,0-3.6,0.6-4.6C475.9,310,475.5,309.4,475.5,309.4z M476.2,307c-0.7,0.3-0.7,1-0.7,1.8
				c0-0.3,0.3-0.9,0.4-1.3L476.2,307z M481.3,292.2c-1.2,2.8-3.1,5.3-3.4,7.9c0.1-0.7,1.5-1.6,1.9-2.7c0.6-1.3,1-3,1.3-4.5
				C481.1,292.8,481.3,292.5,481.3,292.2z M488.4,299.6c-0.7,2.4-1.5,4.8-2.1,7.1L488.4,299.6z M489,297.2c-0.1,0.3-0.1,0.6-0.1,0.9
				c0-0.1,0-0.1,0.1-0.3V297.2z"/>
			<path class="st1" d="M577.7,301.5c-1.2,2.5-2.7,4.9-4.3,7.3c-3.4,5-7.1,10.1-10.7,15.1c-3.6,4.9-7.4,9.8-12.2,13.8
				c-0.9,0.6-7.7,6.1-8.2,5.9c0-0.1,0.1-0.3,0.3-0.4l-1,0.4c0.7-0.1-2.1,1.8-2.8,2.1c-2.1,0.4-4.3-0.1-6.1-1.3c-1.9-1.2-3-3-3.9-5
				c-1.5-3.3-1.6-6.4-1-9.9c0.1-0.7,2.2-9.4,3.3-9.2c0.3,0-0.3,1.2-0.1,1.3l1-3.7c-0.4-0.1,7.4-16.8,8.2-17.8
				c-4.5,0.9-10.1,0.7-13.2-3.1c-0.9-1.2-0.6-2.2-0.9-3.1c-0.4-1.2-1-1.8-1.3-2.8c-1.5-7.3,7-17.4,14.1-12.5l-0.3-0.4
				c0.1-0.9,1.9,1.3,2.1,2.1c0,0.6-1.2,4.8-1.9,4.5c-0.1,0,0.9-2.7,0.9-2.8c-1,2.8-4.2,5.9-4.5,8.9c-0.3,2.2,0.9,2.2,2.8,2.7
				c2.8,0.7,7.3,0.3,10.8,1.3c-2.4-0.7-5.2-0.9-7.1-1.2c0,0-0.1,0-0.1-0.1c2.2,0.3,4.6,0.3,6.5,0.7c4.3,1,7,2.7,5.2,7.3
				c-1.8,4.3-4,8.6-5.9,12.9c-1.8,4.2-3.3,8.6-4.9,12.9c-0.4,1.5-3.7,7.7-2.5,9.2c1.5,1.8,9.7-5.6,11.9-8c-0.4,0.4-0.9,0.4-1.2,0.7
				c-0.3,0,3-4.2,3.4-4.8l4.3-5.5l8-10.5l8.2-11c0.7-0.9,4.3-6.1,5.2-2.2C580,297.2,578.5,299.7,577.7,301.5z M531.6,341.6
				c-0.1-0.1-0.3-0.3-0.3-0.4l0.1,0.1c-0.7-1.6-1.5-3.3-1.8-4.2l0.4,1.9l-0.6-3.1v-0.1c-0.1-0.3-0.1-0.4-0.1-0.4s0,0.1,0.1,0.3v-0.7
				c-0.1-2.1,0-4,0.3-5.9v-0.1c-0.3,1.3-0.4,2.5-0.4,4c-0.1,1.8,0,3.9,0.4,5.6c0.1,0.4,1.3,3,2.2,4.2c0-0.1,0-0.3-0.1-0.3
				c0.9,0.9,2.1,1.6,3.4,2.1c-1.6-0.6-2.8-1.8-3.7-3V341.6z M529.8,328.7v0.1c0-0.1,0.1-0.3,0.1-0.4
				C530,328.5,529.8,328.5,529.8,328.7z M530.3,325.9c0,0.3-0.1,0.4-0.1,0.6C530.1,326.3,530.3,326.2,530.3,325.9z M530.6,325.9
				c1-3.9,2.7-7.6,4.2-11.1l2.8-6.5c0.7-1.3,3.9-8.6,4.6-9.1c-1,0.3-3.1,5.6-3.4,6.1c-1.3,2.5-2.5,5-3.6,7.7
				C533.4,317.1,531.6,321.4,530.6,325.9z M530.9,340.4c0-0.1-0.1-0.3-0.1-0.3C530.7,340.3,530.9,340.3,530.9,340.4z M535.2,291.1
				c0,0,0-0.1,0.1-0.1L535.2,291.1z M535.2,291.3c0.1,0.3,1,1,1,1c0.7,0.6,1.8,0.9,3,1c-1.3-0.1-2.7-0.3-3.4-0.9
				C535.5,292.3,535.2,291.6,535.2,291.3z M551.4,303.9l-3.1,6.7l3.1-6.5V303.9z M551.4,303.7h0.1v-0.1L551.4,303.7z M551.4,303.7
				h0.1v-0.1L551.4,303.7z"/>
			<path class="st1" d="M625,297.4l-4.6,6.1l-8,10.4c-2.1,2.7-4.6,5.2-6.7,7.9c-2.2,3-4.2,6.1-6.7,8.9c-2.7,2.8-5.8,5.8-9.4,7.7
				c-2.5,1.3-4.9,1.5-7.6,0.7c-3.9-1-7.3-3.4-9.8-6.4c-0.7-0.9-1.5-1.6-1.6-2.8c-0.1-0.9-0.3-1.9-0.3-3c-0.1-1.8,0.4-3.1,0.7-4.9
				c0.3-1.9,1.2-3.7,1.5-5.6c0.3-2.1,0.9-4,1.2-5.9c0.1-1.8-0.1-3.7,0.3-5.5c0.3-1.2,1.2-2.4,1.6-3.7c-0.4,0.9-1.2,1.8-1.3,2.5
				c-0.4,1.2-0.7,2.4-1.2,3.4c-0.4,1.2-0.6,2.2-1,3.4c-0.6,1.3-1.2,2.5-1.3,4c-0.1,1.3,0,2.7-0.1,4c-0.3,1.3-0.6,2.4-0.6,3.7
				c0,0.4,0.3,1.3,0.3,1.6c0,0.6-0.3,1.3-0.3,2.1c0,1.3,0.3,2.7,0.4,4.2c-2.4-4.2-1.9-8.3-1.2-12.8c0.7-4.5,1.3-8.8,2.4-13.1
				c1.9-8.8,5.9-17.4,11.6-24.4c4.6-6.1,10.7-10.7,18.7-9.2c3,0.6,6.2,1.9,8.2,4.5c2.1,2.8,1.9,6.4,0.9,9.7
				c-1.9,5.8-6.8,10.4-11.4,14.3c-1.9,1.6-4,3.3-6.2,4.6c-1.5,0.9-3.1,1.5-4.8,2.1l-2.5,0.9c-1,0.3-1.2,0.1-1.6,1
				c-0.7,1.5-0.3,3-0.6,4.5c-0.3,1.9-0.7,3.7-1.2,5.6c-0.7,3.6-1.9,8.2-1,11.9c1.6,7.6,14.1-4.2,16.3-6.2c1.5-1.3,2.8-2.8,4.2-4.2
				c0.7-0.9,1.6-1.6,2.2-2.5c0,0,0.3-0.7,0.3-1c1.8-2.8,4.2-5.5,6.4-8.2c2.7-3.1,5-6.4,7.6-9.8c1.3-1.9,4.5-7.4,6.8-3.4v0.1
				c0.1,0.1,0.1,0.1,0.1,0C626.2,295.7,625.8,296.5,625,297.4z M586.9,300.9c4.8-2.5,9.1-5.9,12.5-9.9l2.5-3.3
				c0.4-0.7,1.2-1.2,1.5-2.1c0.1-0.7-0.1-1.3,0-2.2l0.6-3.1c0.1-1.5-0.4-5.3-2.7-4.9c-1,0.3-2.1,1.6-2.7,2.4l-2.7,3.6
				c-3.1,4.6-4.8,9.7-7,14.4c0,0,0,0.1-0.1,0.4C588,297.7,587.6,299.3,586.9,300.9z"/>
			<path class="st1" d="M686.3,305.1c-1.9,4.5-4.2,8.5-6.5,12.5c-2.8,4.5-5.6,8.8-8.9,12.6c-2.7,3.4-6.4,7.7-10.8,8.5
				c-5,0.9-9.1-3.3-10.7-7.7c-3.6-8.8-1-18,1.6-26.4c0,0,0-1.3,0.1-2.4c-1.5,2.2-3.6,4.9-4.9,7c-1.8,2.8-3.1,5.6-5,8.3
				c-0.9,1.3-13.1,16-14.7,13.5c0,0,1.8-0.7,1.6-1c-1.8,1.2-4.2,1.5-6.2,0.9c0.4,0.3,0.7,0.4,0.6,0.4c-3.4,0.4-6.1-4.9-6.8-7.3
				c-1.2-4.2-0.9-8.8-0.1-12.9c1.6-8.6,5.2-18,10.2-25.4c1.3-1.8,2.7-3.9,4.6-5.2c1.2-1,2.2-1.2,3.6-2.1c2.2-1.9,4.2-3.6,7.4-3.6
				c7.3,0,10.2,8.3,11.7,14c3.6-4.6,9.9-10.7,15.4-4c3,3.6,1,6.2-0.6,9.5c-2.8,5.2-5,11.6-6.2,16.9c0.1-0.4,0.6-2.7,1.2-2.8
				c1.2-0.3-9.5,33.3,5.8,14.4c4.6-5.8,8.6-11.9,12.6-18c1.8-2.8,3.6-5.8,5.5-8.6c0.9-1.2,3.6-4,3.7-0.7
				C690.8,298.8,687.5,302.3,686.3,305.1z M648.6,294.1c0-1.2-3-9.4-2.2-9.9c0.1-0.1,1.5,4.2,1.6,4.5c-0.4-1.8-1-7.3-3.7-7.3
				c-4.9,0-8.6,9.1-10.2,12.5c-3,6.7-5.6,13.8-6.8,21.1c0.4-2.2,9.1-29.1,11.7-29c-2.1,0.4-9.9,23.3-10.4,25.4
				c-0.3,1.2-2.7,8.9-0.4,9.7c1.5,0.4,5-4.2,5.8-5.2c2.8-3.4,5.5-7,8-10.7l3.9-5.5c0.6-1,1.3-2.1,2.1-3.1
				C648.6,295.3,648.6,295.3,648.6,294.1z M649.1,293.1v1.5C649.5,294.1,649.5,293.6,649.1,293.1z M652.6,300.2l-0.7,1
				c-0.1,0.4-0.6,2.5-0.6,2.5L652.6,300.2z"/>
			<path class="st1" d="M739.9,254.2c0.1,2.1-2.4,3.7-4.2,4.2c-1.9,0.6-4.2-0.6-5.9-0.3c-1,0.3-0.7,0.7-1.6,1
				c-1.3,0.4-3,0.3-4.3,0.3c-1.9,0-6.1-1-7.7,0c-0.3,0.1-0.6,0.4-0.9,0.9l0.4-0.9c-0.9,0.1-2.4,4.2-3.4,6.8l1.6-3.3l-2.1,5.6
				c-1.5,3.1-2.8,6.4-4.2,9.5c-2.7,6.2-5,12.3-7.4,18.7c-4,11.6-8,23.8-10.7,35.8c-0.4,2.1-3,10.7-0.1,11.9c0.4,0.3,3.6-1.5,3.4-1.3
				c0.7-0.7,1.6-1.5,2.4-2.4c-0.6,0.4-2.2,1.8-2.2,1.5c-0.1-0.9,3.6-3.9,4.2-4.6c1.5-1.5,2.8-3.1,4.2-4.6l8.6-10.5
				c5.3-6.7,10.4-13.5,15.7-20.2c1.2-1.5,3.9-6.7,5.8-7.1c2.4-0.4,2.8,1.9,2.1,3.9c-1.3,4-5.3,7.3-7.4,10.8c-3.7,6.2-8.2,12-12.5,18
				c-4.8,6.4-9.5,12.8-14.7,18.9c-2.4,3-5.5,7.1-9.2,8.9c-2.8,1.3-6.5-0.3-8.9-2.1c-2.7-1.8-4.2-4.5-4.8-7.4c-0.1-0.9-1-5.6-0.1-6.7
				v2.2l0.3-3c-0.3,0.6-0.3-1.3-0.3-1.6c0-1.2,0.3-2.5,0.6-3.7c0.3-2.4,0.9-4.6,1.5-7c1-4.6,2.2-9.2,3.1-14
				c0.7-4.8,2.4-9.2,3.9-13.7c0.3-0.7,3.3-9.8,4-9.8c0.1,0-0.3,1.8-0.3,1.9c0.6-2.2,1.5-4.5,2.2-6.7c-0.3,0.7-0.7,1.5-0.7,1.2
				c0-1.8,1.9-4.9,2.5-6.5l1.8-5.2c1.6-4.8,3.3-9.5,5.3-14c-4.2,0.3-8.2,0-12,0.7c-5.6,1-12.8,0.4-18.4-0.3
				c-0.7-0.1-4.3-0.3-3.4-1.9c0.3-0.4,3.6-1.2,4.2-1.3c2.8-1,5.8-1,8.8-1.2c5.8-0.6,11.4-0.3,17.2-1c1.5-0.1,4,0.3,5.3-0.3
				c1.3-0.4,1.3-1.5,1.9-2.8c1-2.7,2.2-5.3,3.4-7.9c1.3-2.8,2.5-5.8,4.3-8.3c1.2-1.6,2.4-2.1,3.3-3.9c1.8-4,3.9-8,6.7-11.4
				c3-3.9,8.2-4.5,12.8-3.6c2.2,0.4,5.3,1.8,4.3,4.8c-0.4,1.2-1.9,1.9-2.8,2.8c0,0.1,1.3-1.3,1.3-0.7c-0.1,1-5.6,8.6-6.1,8.5
				c-0.1,0,2.1-3.7,2.2-4c-5.6,8.3-10.4,17.4-14.8,26.4c0.4,0,0.9-0.6,1.5-1.6c-0.4,0.9-0.7,1.5-0.7,1.6c5.8-0.3,11.7-0.3,17.7-0.6
				c1.2,0,3.4-1.6,3.6,0.4V254.2z M686.8,345.5c0.1,0.1,0.3,0.3,0.4,0.3L686.8,345.5z M731,225.5c-11.9,16.8-19.3,36.7-27.6,55.2
				c-4.9,10.8-9.1,22.1-12.3,33.6c-1.5,5.2-2.7,10.4-3.7,15.7l0.7-2.8c1.6-7,4-14,6.5-20.6c5.3-14.7,10.4-29.8,17.1-43.9
				C717.7,250,723,236.9,731,225.5z M706.4,279.7c-1.3,3-2.4,5.9-3.6,8.8c1.2-2.7,2.4-5.3,3.4-8.2
				C706.2,280.1,706.2,280,706.4,279.7z M721.1,249l-1.5,3.3C720,251.3,720.6,250.1,721.1,249z M725.1,241.1l-3.6,6.8
				C723,244.5,724.4,241.2,725.1,241.1z"/>
			<path class="st1" d="M760.6,302.7c-2.5,3.7-4.9,7.3-7.7,10.8c-3,4-6.7,10.4-11.9,11.6c-1.2,0.1-6.8-1.3-6.7-2.2h0.3
				c-1.2-0.6,0,0.7-1.8-0.6c-1.3-0.9-2.2-2.2-3.1-3.6c-1.6-2.2-3.7-4.2-4.3-6.8c-0.1-0.7-0.4-6.1,0.7-6.1c0.3,0,0,0.7,0.1,0.7
				l0.4-2.7c-0.1,0.3-0.1,0.4-0.4,0.6c-0.6-0.1,2.2-10.7,2.5-11.6c1.2-3.1,1.8-6.7,4.8-8.5c2.2-1.5,5-1.2,7.9,0
				c1.2,0.4,4.6,1.9,4.6,3.4c0,0.9-0.7,1-1.2,1.5c0.1-0.1,0.4-0.1,0.6-0.1c0.4,0.3-1.8,3.4-2.1,3.3c-0.3,0,0.1-0.7,0.3-1.2
				c-2.8,4.6-5.2,9.8-7,15c0.7-1.9,4.5-10.2,4.9-10.1c0.4,0.1-9.8,18-4.8,20.5c2.4,1.2,6.4-2.5,8-3.9c2.8-2.2,6.7-5,8.8-7.6
				c-0.3,0.3-0.6,0.3-1,0.3c-0.6-0.7,6.8-10.5,8.2-11.4c1-0.7,3.1-1.3,3.4,0.6C764.7,297.5,762.1,300.8,760.6,302.7z M735.3,311.2
				l-0.3,1.2l0.3-0.9v-0.1C735.5,311,735.5,311,735.3,311.2z M737.3,274.5c-0.1-0.4-0.6-5,1-4.3c0-0.4,1.8-2.7,0.9-0.7
				c1.3-1.8,2.5-3.9,3.6-6.1L741,266c1.3-2.7,3.4-8.2,3.6-9.2c0-0.1-0.3-1.5,0-1.8c-3.1-1.2-0.9-3,0.4-4c-0.3,0-0.4,0-0.6-0.3
				c-0.6-0.6,1.2-1,1.6-1.2c2.1-0.9,4.8-0.4,6.7,0.6c1.6,1,3.1,3.3,3.7,5c0.6,1.9-0.9,4.2-2.2,5.3c-0.6,0.6-1.6,1-2.4,1.6
				c-0.9,1-0.7,2.4-1.5,3.4c-0.4,0.7-1.3,1-1.8,1.8c-0.6,0.4-0.6,0.9-0.1,1.3c-0.6,0.3-1,0.6-1.5,1c-1.5,2.4-2.4,3.7-4.2,5
				c1.6-1,2.7-1.9,4.2-3.9c1.2-1.5,2.5-2.5,4.3-3.3c-1.5,1.6-1.8,3.6-3.6,4.8c-1.8,1-0.1-1-2.1,0.7c0,0,0.9-0.1,0.4,0.1
				c-1.3,1.2-2.7,3.1-4.5,3.9c-0.9,0.3-1.5,0.9-2.5,0.4c-1-0.6-0.6-1.2-0.9-1.6C738.2,276,737.3,274.6,737.3,274.5z M738.5,270.2
				c0.1,0,0.1,0.1,0.1,0.1c0.1-0.1,0.1-0.1,0.1-0.3C738.6,270.2,738.6,270.2,738.5,270.2z M740.8,266.3c-0.3,0.6-0.6,0.9-0.6,0.9
				L740.8,266.3z"/>
			<path class="st1" d="M824.4,298.4c-1.6,2.2-3.6,4.2-5.6,5.9c-1,1-1.8,2.4-2.8,3.4c-6.4,7.3-25.1,12.3-24.6-2.5
				c-4.9,6.8-11.1,12.2-15.6,19.5c-2.5,4-4.2,7.3-5,11.9c-0.1,1.8-0.4,3.6-1.3,5c-2.2,3.4-6.2,2.8-9.1,0.7c-4-3-3.7-9.4-3.4-14.1
				c0-1.8,1-3.6,1.2-5c0,0-0.3-2.7-0.1-2.4c-0.1-0.4-0.4-0.9-0.4-2.4c0-1.6,0.3-3,0-4.6c-0.1-1.9-0.6-3.1-0.1-5.2
				c0-0.3,0.7-2.1,0.7-2.1c0,0.1,0,0.4,0.1,0.4c0-0.4,0-1-0.1-1.6l-0.1,0.1c0.4-0.7-2.2-9.2-1.8-11c0.6-2.2,2.1-2.5,3.6-3.4
				c0.6-0.4,1.8-1.6,3.1-2.1c1.6-0.6,4-0.7,5.2,0.9c0.9,1,0.1,1.3,0.6,2.2c-0.1-0.4,0.6-0.6,0.7-0.1c0.1,0.4,0.3,2.5,0.1,2.4l-0.4-1
				c0.7,2.5,1,5.2,1.3,7.7v0.1l0.3,4.5c0-0.3-0.1-2.2-0.1-4c0.6,6.1,1.8,17.1,1.6,18.6c1.6-2.4,3.3-4.8,5-7c0.7-1.2,1.8-2.1,2.7-3
				c0.9-1,0.9-2.1,1.5-3c1.5-2.7,4.2-4.6,6.1-6.8l4.9-5c3.1-3.6,5.9-7.9,10.4-10.5c2.8-1.9,9.5-1.8,8.9,3c-0.3,1.2-0.9,1.8-1.8,2.5
				c-2.7,2.4-6.1,3.6-8.6,6.2l-2.7,2.8l-0.9,0.6c-0.3,0.9,0.3,0.7,0.1,1c-0.7,2.1-3.4,6.7-0.9,8c1.2,0.6,4.2,0.4,5.3,0.1
				c2.1-0.3,4-2.4,6.1-3.3c2.1-1,3.7-2.4,5.5-3.9c0.6-0.4,11.3-13.8,11.9-6.4C826.1,296.8,825,297.7,824.4,298.4z M768.9,295.4
				c-0.1-0.9-0.3-1.9-0.7-2.7c-0.1-0.1-1.5-2.1-1.5-1.6c0,0.6,0.9,1.5,1,2.1c0.4,1,0.6,2.2,0.7,3.4c0.3,2.5,0.3,4.8,0.1,7.3
				c-0.1,3,0.3,6.2,0.1,9.1c0.4-3.4,0.6-7,0.7-10.5C769.6,300,769.3,297.7,768.9,295.4z M768.5,314.7c-0.1,0.4,0,0.6,0.1,0.6
				C768.7,314.9,768.7,314.7,768.5,314.7z M770.4,297.5v2.2C770.4,298.4,770.2,297.5,770.4,297.5z M770.4,300.9v0.1v0.1
				c0,0.1,0,0.1,0.1,0.3C770.5,301.4,770.4,301.2,770.4,300.9z M770.8,309.4v2.2C771,310.9,771,310.1,770.8,309.4z"/>
			<path class="st1" d="M886.3,305.1c-1.9,4.5-4.2,8.5-6.5,12.5c-2.8,4.5-5.6,8.8-8.9,12.6c-2.7,3.4-6.4,7.7-10.8,8.5
				c-5,0.9-9.1-3.3-10.7-7.7c-3.6-8.8-1-18,1.6-26.4c0,0,0-1.3,0.1-2.4c-1.5,2.2-3.6,4.9-4.9,7c-1.8,2.8-3.1,5.6-5,8.3
				c-0.9,1.3-13.1,16-14.7,13.5c0,0,1.8-0.7,1.6-1c-1.8,1.2-4.2,1.5-6.2,0.9c0.4,0.3,0.7,0.4,0.6,0.4c-3.4,0.4-6.1-4.9-6.8-7.3
				c-1.2-4.2-0.9-8.8-0.1-12.9c1.6-8.6,5.2-18,10.2-25.4c1.3-1.8,2.7-3.9,4.6-5.2c1.2-1,2.2-1.2,3.6-2.1c2.2-1.9,4.2-3.6,7.4-3.6
				c7.3,0,10.2,8.3,11.7,14c3.6-4.6,9.9-10.7,15.4-4c3,3.6,1,6.2-0.6,9.5c-2.8,5.2-5,11.6-6.2,16.9c0.1-0.4,0.6-2.7,1.2-2.8
				c1.2-0.3-9.5,33.3,5.8,14.4c4.6-5.8,8.6-11.9,12.6-18c1.8-2.8,3.6-5.8,5.5-8.6c0.9-1.2,3.6-4,3.7-0.7
				C890.8,298.8,887.5,302.3,886.3,305.1z M848.6,294.1c0-1.2-3-9.4-2.2-9.9c0.1-0.1,1.5,4.2,1.6,4.5c-0.4-1.8-1-7.3-3.7-7.3
				c-4.9,0-8.6,9.1-10.2,12.5c-3,6.7-5.6,13.8-6.8,21.1c0.4-2.2,9.1-29.1,11.7-29c-2.1,0.4-9.9,23.3-10.4,25.4
				c-0.3,1.2-2.7,8.9-0.4,9.7c1.5,0.4,5-4.2,5.8-5.2c2.8-3.4,5.5-7,8-10.7l3.9-5.5c0.6-1,1.3-2.1,2.1-3.1
				C848.6,295.3,848.6,295.3,848.6,294.1z M849.1,293.1v1.5C849.5,294.1,849.5,293.6,849.1,293.1z M852.6,300.2l-0.7,1
				c-0.1,0.4-0.6,2.5-0.6,2.5L852.6,300.2z"/>
		</g>
	</g>
	<g>
		<g>
			<g>
				<path class="st3" d="M217.4,151.8c0,0,55,3.6,55,64.4c0,33.3-32.1,52.5-68.6,58.5c-47.7,7.8-65.7,47.9-61.8,72
					c8.8,53.9,67.3,51,80.8,49.6"/>
				<g>
					<path class="st4" d="M223,399.1c1.6-0.2,2.8-1.7,2.6-3.3c-0.2-1.6-1.7-2.8-3.3-2.6c-1.6,0.2-2.8,1.7-2.6,3.3
						S221.4,399.3,223,399.1z"/>
				</g>
			</g>
		</g>
		<g>
			<g>
				<path class="st3" d="M316.9,155c-19.2,5.2-103.7,21.5-103.1,122.2c0.4,72.5,69.8,115.2,125.3,112.8"/>
				<g>
					<path class="st4" d="M339,392.9c1.6-0.1,2.9-1.4,2.8-3.1c-0.1-1.6-1.4-2.9-3.1-2.8c-1.6,0.1-2.9,1.4-2.8,3.1
						C336,391.8,337.4,393,339,392.9z"/>
				</g>
			</g>
		</g>
	</g>
</g>
</svg>
